<svg xmlns="http://www.w3.org/2000/svg" viewBox="0 0 1024 1024" class="taco-happy-svg"><g><g data-name="Body"><path data-name="Body-2" fill="#2b303c" d="M416 944c7 20 24 48 90 59 31 4 114 12 206-70 146-107 71-173 39-192-14-12-94-9-104-41-11-36-9-91-4-122-65.67 3.33-141.33 4.67-207 8 1 29.4 11 64 12 95 3.23 100.11-46 118-32 263z"/><path data-name="Print" fill="#fff" d="M415 858.26c6 46.82 22.09 69.75 86 76.74 70.69 7.73 156-59 141-150-2-23-33.19-68.78-36-68 0 0 30-42 4-72-27.91-32.2-111.79-52.22-168-13l-.25.18c2.76 16.28 5.53 32.77 6 48.34 2.49 76.11-25.36 104.71-32.75 177.74z"/><path data-name="Collar" fill="#93a01e" d="M448 704c-18 3-11 18-14 29-2 8-14 27-2 40 36 23 103 29 159 5 40.35-18.56 60-37 77-58 4-10 1-19-12-24 0-14-19-44-18-18-80 66-182 47-191 35 .33-3 .67-6 1-9z"/></g><g data-name="Head"><path data-name="Left Ear" fill="#1a1e23" d="M248 132c-45.46 48.37-100 135-139 213-105.2 210.4-85 466-8 562 39 56 95 95 162 89 63.67-5.7 112.67-37.32 127-96 21-86-8.66-168.81-35-227-50.93-112.51-99.64-284.91-107-541z"/><path data-name="Head-2" fill="#353b48" d="M428 39C649 6 804.34 189.06 811.27 340.44 817.38 473.86 703.72 570.39 686 585c-47.6 53.18-286 125-414 68-25.67-11.43-73.39-40.88-80.63-90.24-3.89-26.51 4.27-48.41 9.63-59.76-15.59-28.18-57-112-36-213.87C189 166 293 58 428 39z"/><g data-name="Mouth"><path data-name="Mouth-2" fill="#fff" d="M445 693c159-5.19 183-71.2 183-122 0-57-104-139-211-50-68-9-140.95 23.12-144 79-2 37.6 19 98 172 93z"/><path data-name="Nose" fill="#2a2f36" d="M402 486c32-7 75.11-4.52 83 9 7 12-49 76-74 78-16 0-58-26-68-48 8-15 27.5-32.11 59-39z"/><path data-name="Smile" fill="#2a2f36" d="M391 620c0 2.61.19 6.59 3 9 14 12 44 6 49-6 38 14 68-7 76-18l2-11c-16 21-47 37-81 20-12 23-38 15-49 6z"/></g><g data-name="Eyebrows" fill="#fff"><path data-name="Right Eyebrow" d="M320 163c-24.12 3.22-17 59-12 79 10.94 43.77 48 69 48 1 0-42-21-82-36-80z"/><path data-name="Left Eyebrow" d="M490 133c-29-1-45 36-45 74 0 55.08 38.57 67.45 59 12 14-38 3-85.41-14-86z"/></g><g data-name="Left Eye"><path data-name="Left Eye 1" fill="#fff" d="M283 315c-31 2-57 57-61 98-.34 3.44 0 57 56 82 22.9 10.22 65 15 82-16 24.52-44.72 6-98-1-112-4.64-9.28-26.61-55.19-76-52z"/><path data-name="Left Eye 2" fill="#93a01e" d="M358.8 366.37c-3.32-6.64-15.52-32.05-40.3-44.79-13.78 16.79-21.44 45.68-19.66 73.91 9.07.36 21.52 8 21.6 17.46.06 7.46-7.52 14.71-15 16.9C311 447.61 321.48 465 346 465c7.48 0 15.12-2.94 22.31-7.9 10.54-39.04-3.6-78.9-9.51-90.73z"/><path data-name="Left Eye 3" fill="#546403" d="M369.26 397.7c-15.93-10.24-39.17-9.19-55.32 3.82 3.77 3.06 6.46 7 6.5 11.43.06 7.38-7.36 14.55-14.79 16.83 5.56 17.86 16 35.44 40.68 35.44 7.48 0 15.12-2.94 22.31-7.9 5.72-21.17 4.17-42.57.62-59.62z"/></g><g data-name="Right Eye"><path data-name="Right Eye 1" fill="#fff" d="M598.35 273c-54-13-88.85 22.55-106 74-12 36-9 108 37 121 44.58 12.6 93-6 118-52 29.17-53.67-16.68-135.22-49-143z"/><path data-name="Right Eye 2" fill="#93a01e" d="M598.77 273.32a99.08 99.08 0 00-12.35-2.18c-21.24 16.28-35.77 51.25-34.86 83.4l.68-.14c11.74-1.89 32 6.43 33 16 1 9.94-12.41 21.63-25.19 20.27 10.33 24.82 28.54 50.69 67 46.33a41.7 41.7 0 007.87-1.68 115.6 115.6 0 0012.9-19c29.12-53.68-16.74-135.22-49.05-143z"/><path data-name="Right Eye 3" fill="#546403" d="M656.13 361.5C641.67 353 625.36 348.85 615 350c-11.56 1.28-23.6 6.08-34.46 12.94 2.69 2.29 4.47 4.87 4.75 7.55 1 9.9-12.31 21.54-25 20.28 10.31 24.87 28.52 50.86 67 46.49a41.7 41.7 0 007.87-1.68 115.56 115.56 0 0012.89-19c9.04-16.69 10.85-36.07 8.08-55.08z"/></g><path data-name="Right Ear" fill="#2a2f36" d="M686 109c112 68 294 260 318.5 416.5C1051 774 881 991 773 974c-13-3-28.4-11.93-43-27.5-48.52-51.72-24.88-136.36-21-204.5 6.69-117.33 13-207 5-312-18.94-248.53-28-321-28-321z"/></g></g></svg>