<svg xmlns="http://www.w3.org/2000/svg" viewBox="0 0 1024 1024"><g data-name="ears"><path d="M835 365.31C835 255.81 624 0 598.1 0c-70.68 0-54.75 620.13-41.81 622.12C629.76 633.42 835 568.37 835 365.31zM187.39 365.49C187.39 256 398.41.18 424.29.18 495 .18 479 620.31 466.1 622.3c-73.47 11.3-278.71-53.75-278.71-256.81z" fill="#a7b3c2"/><path d="M229.49 374.76C229.36 293.08 391.66 85.6 411 85.6c36.83 0 36.11 479.3 26.45 480.75-80.24 11.97-207.65 1.02-207.96-191.59zM791.34 374.63c.14-81.69-162.16-289.16-181.47-289.16-36.83 0-36.11 479.3-26.45 480.74 80.2 11.97 207.58 1.02 207.92-191.58z" fill="#5c718a"/></g><g data-name="Body"><path d="M454 994.45c2.11-13.55 27.83-38.56-1.27-114.43 46.72-4.51 95.74-8.72 142.46-13.23-10.85 82.72-10 66.22 7.92 101.63 1.88 3.74-40.47 53-73.79 54.88-20.32 1.17-76.5-21.03-75.32-28.85z" fill="#a7b3c2"/><path d="M462.21 947c-2.24 2.17 4.68 7.15-3.57 26.81C454.3 984.1 510 997.6 526.3 996c23.31-2.31 82-28.4 75.55-35-14.13-14.47-8.5-33.07-12-30.84-90.62 57.9-119.72 9.14-127.64 16.84z" fill="#eb3b5a"/></g><g data-name="Head"><path data-name="HeadBase" d="M510.5 917.75c-118.45 0-234.91-183.15-234.91-263.75 0-165.23 162.25-244.87 235.91-244.87 45.79 0 227 59.73 234.91 236.91 3.77 83.79-110.47 271.71-235.91 271.71z" fill="#d1d8e0"/><path d="M441.05 845.77c.05 12 7.53 23 17.34 29.4a36.3 36.3 0 0036.51 2.43c8.49-4.33 15-11.77 19.85-19.83h-2.59c3.52 7.45 8.59 14.35 15.7 18.7a33.28 33.28 0 0018.73 4.73 45 45 0 0017.57-4.57c6-2.89 11.49-7 14.94-12.77 3.68-6.18 5.23-13.55 5.38-20.69 0-1.93-3-1.93-3 0a41.16 41.16 0 01-3.48 16.41 26.12 26.12 0 01-7.34 9.54 40.55 40.55 0 01-6.14 4c-10 5.38-22.65 7.28-33.08 1.93-7.72-4-13-11.07-16.66-18.77a1.51 1.51 0 00-2.59 0c-4.19 6.91-9.55 13.31-16.53 17.5A32.39 32.39 0 01478 878.5c-11.3-.31-22.12-6.73-28.44-16a30.08 30.08 0 01-5.55-16.73 1.5 1.5 0 00-3 0z" fill="#5c718a" data-name="Mouth"/><g data-name="Spots" fill="#a7b3c2"><path d="M617 485c-63.06 18.12-105.39 88.67-99 152 8.32 82.44 66 172 174 124a183.33 183.33 0 0026.49-14.55c18.7-37.71 29.1-74.19 27.92-100.44-3.33-74.12-37-127.68-78.33-164.91A128.12 128.12 0 00617 485zM282.86 596.17a233.93 233.93 0 0039.92-2.46c86.23-13.35 169-65 157-153a75.11 75.11 0 00-8.08-26c-68.53 18.01-162.65 77.76-188.84 181.46zM366.86 733.61c-21-3.19-42.2 10.57-53.58 30.16a431.29 431.29 0 0054.36 75.08c16.72-2.19 31.78-10 40.22-29.24 17.5-40-10.3-71.34-41-76z"/></g><path data-name="Nose" d="M549.25 788.23c-3-7-30.1-4.25-37.89.3-7.79-4.55-34.85-7.27-37.88-.3s-3.18 16.51 12.39 23.83 22.52 9.17 25.49 9.15 9.79-1.77 25.49-9.15 15.39-16.93 12.4-23.83z" fill="#5c718a"/><g data-name="lefteye"><path d="M427 529c40 35 48 179-1 211-40.65 26.55-73-35-76-109-2.51-62 28.34-144.58 77-102z" fill="#fff"/><path d="M403.34 572c-18 41-8.77 139 25 149a29.76 29.76 0 0014.41.42c26.66-45.45 20.55-141.1-6.38-181.52-21.15.29-29.06 23.04-33.03 32.1z" fill="#eb3b5a"/><path d="M459.78 632c-25.21-4-49.56 9.23-63.78 22.91 4 32.21 14.87 61 32.34 66.11a29.8 29.8 0 0014.42.42c12.91-22.04 18.13-55.86 17.02-89.44z" fill="#fc5c65"/></g><g data-name="righteye"><path d="M594.73 529c-40 35-48 179 1 211 40.65 26.55 73-35 76-109 2.51-62-28.34-144.58-77-102z" fill="#fff"/><path d="M618.39 572c18 41 8.77 139-25 149a29.76 29.76 0 01-14.41.42c-26.65-45.45-20.55-141.1 6.38-181.52 21.15.29 29.06 23.04 33.03 32.1z" fill="#eb3b5a"/><path d="M562 632c25.21-4 49.56 9.23 63.78 22.91-4 32.21-14.87 61-32.34 66.11a29.76 29.76 0 01-14.41.42C566.06 699.4 560.84 665.58 562 632z" fill="#fc5c65"/></g></g></svg>