<svg xmlns="http://www.w3.org/2000/svg" width="9333.333" height="9333.333" version="1" viewBox="0 0 7000 7000"><path d="M3204.5 231.7c-70.3 2.7-116.5 6-175.5 12.4-164.3 17.9-331.7 55.5-486.3 109-372.7 129.2-699.1 350.3-952.3 645.5-44.3 51.6-80.3 97.9-126.4 162.5-8.5 11.9-19.9 26.8-25.4 33-36.8 42.5-88.7 121.4-133.1 202.4-4.8 8.8-24.4 39.6-43.5 68.5-265 400.8-443.1 706.2-553.7 949-45.1 99-100.5 234.5-142.3 348-149.7 406.7-250.8 836.2-290.4 1234.5-23.3 233.3-30.1 481.7-20.1 722.5 7.5 178.9 24.4 349 49.6 498.5 57.3 339.9 169.5 649.3 327.2 902 84.3 135.1 192.4 261 320.7 373.6 127.2 111.5 269 202.7 391.9 251.8 152 60.8 339.4 80.8 529.6 56.5 65.3-8.3 132.4-22.9 185-40.1 171.6-56.1 351.4-189.2 470.2-348 100.2-134 155.4-289.6 172.8-487.3 7.9-89.9 8.6-203.9 2-314-15.5-256.5-72.9-515.5-164.8-743.2-22.8-56.4-63-147.6-82-185.8l-3.2-6.5-10.3-2.8c-5.7-1.5-14.8-4.5-20.3-6.8-5.4-2.2-11.9-4.2-14.4-4.5-2.4-.2-10.7-1.6-18.2-3-97.6-17.9-188.9-53.4-265-103-13-8.4-22.1-13.4-24.5-13.4-.9 0-1.9-.4-2.2-.9-.3-.5-2.5-1.2-4.9-1.5-2.3-.4-5.6-1.6-7.2-2.7-1.7-1.1-4.1-2.4-5.4-3-4.3-1.7-28.5-18.7-41.6-29.2-31.2-24.9-52.5-49.5-67.6-78.2-2.9-5.5-7.8-13.6-11-18-42-58.9-70.4-121.4-84.7-186-6.2-27.9-8.7-46.3-10.7-79.7-1.3-22.4-1.3-27.5 0-49.1 2.4-37.7 5.9-60.8 14.1-93 8.5-33.6 18.8-61.3 34.8-94.2 21-43 41.8-74.8 74.5-113.5 76-89.8 189.6-161 317-198.6 15.3-4.6 37.4-10.4 37.8-10.1.1.1.5 4.3.8 9.2.7 8.9.8 9.2 8.3 22.5 9.3 16.6 20.6 35.4 23.8 39.7 5.6 7.3 74.2 70.3 102.9 94.5 56.2 47.2 103.8 81.6 151.2 109.4 35.4 20.7 78.8 39.9 103.8 45.9 3.9.9 10.4 2.7 14.5 4.1 8.5 2.7 34 6.5 39.1 5.9 1.9-.3 11.3-1.2 20.9-2 37.9-3.3 41.4-4.1 62.9-13.2 41.3-17.6 84.8-46.4 141.6-93.9 43.7-36.5 105-97.4 150-148.9 82.3-94.2 137.2-178 151.3-230.5 3.2-12.2 3.8-35.6 1-43-3.4-9.3-5.1-12.7-9.3-18.5-8.5-11.9-20.6-21.5-38.2-30.4-8.7-4.3-25.8-11.1-28.2-11.1-2.9 0-.1-1.1 10-4.1 61.7-17.8 127.3-29 197.9-34 22.3-1.6 99.7-1.6 123.5 0 76.3 5 146.6 17.8 217.4 39.7 72 22.1 145.2 56.1 208 96.6 171.5 110.5 280 276.6 298.6 457.3 1.8 17.9 3.4 54.4 2.8 67-2.5 59.1-7.9 95.9-20.8 141.6-26.4 93.4-74.7 177-146.7 253.7l-12.5 13.4 14.7 14.6c60.9 60.8 95.8 126.9 105.6 200.4 2.2 16.3 2.2 49.7 0 67.2-4.3 34.2-14.4 66.3-31.5 100.4l-7.2 14.3-40.7 20.2c-200.5 99.7-355.7 156.7-476.2 175.1-118.5 18.1-301.7 14.7-475-8.9-50.6-6.9-83.4-17.1-114.1-35.4-15.6-9.2-41.6-29.2-40.4-31.1.9-1.5 6.5-34.4 6.5-38.6 0-3 .8-5.5 2.5-8s2.5-5 2.5-8.1c0-4-.2-4.3-2.2-3.9-1.3.3-5.9 1.2-10.3 2.1-22.1 4.6-34.8 9.8-46.8 19.4-17.4 13.9-27.5 35.1-30.6 64.1-.6 5.8-1.6 23.5-2.1 39.5-2.5 71.2-4.9 82.5-29.6 137.2-13.9 30.6-17.5 41.3-20.8 60.8-6.7 40.6-5.8 79 2.6 102.1 2.9 8.2 13 27.2 17.5 33.2 5.5 7.3 35.9 28.6 58.9 41.1 18.8 10.3 40.1 19.2 78.9 32.9 86.1 30.4 141.4 46.4 202.5 58.6 66.7 13.3 118.4 17.3 209.5 16.3 90.2-1.1 163.4-6.6 244-18.3 109.9-16 194.4-39.3 285.8-78.7 11.6-5.1 12.7-5.4 12.7-3.5 0 1.4.5 1.8 1.6 1.4.9-.3 1.7-.6 1.9-.6.2 0 .1-.9-.2-2-.5-1.7 1-2.7 10.8-7.2 21.3-9.8 76.3-37.6 99.1-50.2 52.4-28.9 108.7-63.9 164.8-102.4l4.5-3.1 1.4 2.7c2.9 5.4 14.9 33.1 20.6 47.2 16.2 40.5 30.5 86.9 39.5 128 1.1 5.2 4.3 17.8 7 28 15.3 57.6 21.7 114.3 19.1 168.7-2.2 47.2-7.4 80.7-20.1 129.3-2.6 10.2-6.7 26.6-9 36.5-27.8 118.4-84.4 233.8-163.5 333-126.5 158.8-309 276.1-515 331-87.7 23.4-184.8 36.5-270.6 36.5-16.2 0-17.1-.1-39-4.9-122.3-27-223.9-57.8-281.4-85.5-74.7-35.9-135.8-88.9-180-156.1-15.1-23-33.9-56.8-43.4-78-20.2-45.4-37.5-116.6-49.2-202.9-1.4-10.8-2.5-16.2-3-15-.8 1.8-3.9 24-7.4 51.9-11.7 94.6-17.4 245.4-12.5 336 11.1 207.1 57.7 322.7 168.4 417.8 36.3 31.2 93.1 69.6 138.1 93.4 116.9 61.7 260.9 97.7 440.5 109.8 50.4 3.3 69.3 3.9 130.5 3.9 76.1 0 121.5-2.2 182.5-9 135.2-15 267.1-51.1 412-112.9 72.4-30.8 161.1-75.6 224.5-113.3 95.9-57.1 228-154.8 382.1-282.8 12.9-10.7 23.8-19.4 24.4-19.4.5 0 1 .5 1 1.1 0 2 11.2 27.5 19.5 44.4 43.1 87.6 107.1 155.9 195 208.2 28.5 17 70.3 37.8 93.5 46.6 47.4 18.1 92.8 25.7 145 24.4 58.4-1.6 108.9-12.2 194.5-41.1 77.3-26 129.8-47.3 190-77.1 68.4-33.9 126.5-69.9 183-113.4 43.1-33.1 73.2-60 122.5-109.2 178.6-178.5 337.7-383.7 451.8-582.9 39.6-69.2 85.8-162.4 132.2-267 122.9-276.9 203.5-539.7 240.4-784 24.3-160.6 37.5-380.6 33.8-563.9-1.2-58.9-2.2-88.1-4.2-126.1-14.4-270.6-56.6-507.1-128-718.5-102.2-302.2-268.8-613.7-534.3-999-149.2-216.4-346.3-447.2-641.2-751-60.1-61.8-249.8-252-296-296.6-53.1-51.3-120.3-111-183-162.9-78.2-64.7-156.5-124-273-207-61.9-44.2-95.1-68-108.7-78.1-6.4-4.8-13.2-9-15-9.4-1.8-.4-4.5-1.7-5.9-2.9-1.4-1.1-12-10-23.5-19.6-160.6-134.7-344.6-248.1-539-332-255.3-110.2-527.1-171.4-809.4-182-23-.9-131.6-1.1-151.5-.3zM3347 908.4c98.9 27.7 155.2 185 137.4 383.6-12.1 135.3-57.8 267.7-121.7 352.5-25.7 34.1-55 60.7-83.7 75.9-11.4 6-21.5 10-34.1 13.3-9.5 2.5-12 2.7-28.4 2.8-19.4 0-26.4-1.2-41.5-7.1-32.8-12.9-62.1-43-83.9-86.1-22.4-44.2-35.8-97.4-42.3-167.8-1.7-18.3-1.7-93.8 0-113 4.6-52 11.4-94 22.3-138.5 3.8-15.6 5.5-21.7 11.6-42 16.1-53.8 40.1-108.7 65.6-150 39.3-63.6 84.7-105.4 131.6-120.9 15.1-5.1 22.5-6.1 41.1-5.7 14.1.3 17.9.7 26 3zM2200.5 1119c59.7 8.5 125.4 90.5 172 214.5 33 88.1 53.9 185.3 61.1 284.5 2.3 32.2 2.3 88.3 0 116-6.5 77.8-23.1 134.5-50.2 171.1-39.9 53.9-97.3 51.1-153-7.4-68.7-72.1-127.4-219.8-150.3-378.2-6.4-44.2-9-76.3-9.8-120.5-.6-38.1.3-62.2 3.8-93.1 10.3-93.2 40.5-158.6 82.9-179.9 14.2-7.1 27.6-9.2 43.5-7zm1807.2 732c3.6 0 6.3.4 6.1.8-.1.5-7 6.3-15.3 12.9-32 25.7-64.7 59.7-90.6 94.3-73.4 97.8-119 220.9-131.4 354.5-2.5 27-3.7 62.7-3.1 87.5.4 12.9.9 25.1 1.2 27.1l.5 3.7 17.2-.5c70.9-2.1 141.2 20 176.1 55.4 19.6 19.8 28.9 39.7 29 61.8 0 24.3-9.6 44.9-30.1 64.6-28.9 27.7-73.8 46-128.1 52.3-6.8.8-12.5 1.6-12.7 1.8-.2.2 2.8 7.3 6.6 15.8 3.9 8.5 7.5 16.8 8.1 18.5 4 10.7 28.8 54.5 43.6 77 52.9 80.7 119.4 141.5 197 180.4 28.5 14.2 47.6 21.6 65.8 25.5 41.6 8.7 82.3 10 124.9 4 10.4-1.5 11.7-1.9 23-8.1 31.4-17.2 62.5-41.1 88.8-68.1 11.2-11.6 11.1-11.3-1.2 6.3-25 35.7-52.9 66.2-90.6 98.9-59.6 51.9-139.2 105.4-206.5 139-59.7 29.8-121.3 48.9-198.5 61.6-44.6 7.3-86.5 10-127.2 8.1-98.3-4.6-155.8-21.4-218.1-63.8-26.1-17.7-49.2-36.4-57.5-46.7-2.1-2.5-5.6-5.5-7.7-6.6-4.6-2.3-7.6-5.8-30.3-34.5-21-26.6-30.4-39.8-40.7-57.1-23.3-39.1-34.4-70.7-47.4-134.9-26.6-131.6-33.9-261.6-20-357.5 5.3-37.2 18.8-97.3 32.3-144.2 6.2-21.6 35.5-97.8 44.2-115.1 3.7-7.2 22.3-40.5 39.1-70.2 6.9-12.1 16.9-30 22.2-39.9 11.7-21.5 13.4-24.3 28.8-45.5 57.8-79.6 125.6-146.3 186-183 47.6-28.9 108.6-51.8 172.2-64.6 41.2-8.2 90.5-13 124.5-11.9 7.4.2 16.3.4 19.8.4zm-2005.2 299c47.6 3.5 97.4 14.2 140.2 30.1 14.3 5.4 38.3 15.5 39.7 16.9.5.5-2.9 5.3-7.7 10.9-25.7 30.1-45.5 61-65.8 102.5-39.7 81.5-63.9 180.9-70 287.6-1.1 20.1-.6 102.1.7 110.1l.6 3.6 8.1 1.2c4.5.7 13.9 2.5 20.9 4.1 75.3 17.1 125 60.6 125.2 109.5 0 24.2-9.6 44.9-30.1 64.6-16.5 15.8-38.4 28.6-64.8 38-6.6 2.3-12.4 4.6-12.8 4.9-2.3 1.9 22.9 56.8 38.6 84 20.8 36.3 39.3 60.7 66.1 87.6 28.4 28.4 53.1 46 84.1 59.7 30.5 13.5 65.8 19.7 96.7 17 49.2-4.3 91.4-22.9 134.1-59.1 4.8-4.1 9-7.3 9.2-7 .7.7-7.8 40.7-11.6 54.3-5.9 21.8-15 44.6-25.8 65-10.7 20.2-20 34.3-41.1 62.5-6.4 8.5-13.1 17.6-14.8 20.2-1.8 2.5-4.6 5.7-6.3 7-1.7 1.2-9.2 8.4-16.7 15.9-36.5 36.2-83 65.8-124.7 79.2-50.5 16.3-130.1 22.1-193 14.2-51.2-6.5-105.7-20.4-151.8-38.7-93-36.8-219.1-129.9-283.6-209.2-56.7-69.7-101.9-174-120.5-278.1-5.7-31.6-7.6-52.6-7.6-83.6 0-40.8 4.3-76.1 15.5-125 21.4-94.7 54-189 90.5-262 12.6-25.2 19.8-37.7 38.4-66.9 72.6-113.7 122.8-167.9 183.1-197.5 27-13.3 55.1-20.5 91.5-23.4 15.3-1.2 49.3-1.3 65.5-.1zM4910 3857.7c-.1 232-9.8 475.6-31 772.8-7.3 101.2-27.7 361.3-28.5 362.3-.4.5-55.1-10.7-85.5-17.4-77.9-17.3-154-39.3-191.4-55.4l-4.6-1.9 4.2-7.3 4.2-7.3v-24c.1-20.8-.2-25.3-2.1-33.5-7.8-35.5-24.6-53-77.1-80.2-8.6-4.5-16-8.6-16.3-9.1-.3-.4-.9-6.1-1.2-12.5-1.2-23.9-6-46.9-14-67.5-8.8-22.4-25.7-52.8-42.7-76.9-3.9-5.5-7-10.1-7-10.4 0-.2.7-.4 1.5-.4s1.5-.4 1.5-.9c0-2-41-55.1-43.3-56.1-.7-.3-1.3-1.4-1.4-2.5-5-50.7-8.4-144-8.6-238.6l-.2-66.2 20-11.4c145.5-83.3 275.3-178.7 402-295.2 22.4-20.6 93.3-91.4 109.5-109.4 5.8-6.4 10.8-11.6 11.3-11.6.4-.1.7 27.2.7 60.6zM3159 6364.6l3.5 1.4-3.5-.6c-4-.7-7.6-2.4-5-2.3.8 0 3.1.7 5 1.5z"/><path d="M3550.3 4062.7c-1.5.3-4.8 4.1-9.9 11.6-34.5 50.3-80.4 89.8-140.7 121.2-48.8 25.4-88.6 39-137.8 47-36.6 5.9-75 7.5-99.7 4.1-27.9-3.8-59.1-11.6-100.4-25.2-16.6-5.5-16.7-5.6-17.4-8.8-.5-2.9-1.3-3.6-6.2-5.6-3.1-1.3-8.6-3.8-12.2-5.5-7.2-3.6-13.5-5-17.9-4-2.6.6-3.7 2.2-10 15.2-13.1 26.8-24.3 41.4-39.9 52.1-18.1 12.4-38.9 21-69.2 28.7-20 5-49.1 8.7-58.5 7.4-3.3-.4-11.2-1.5-17.5-2.4-22-3.1-49.4-11-72.8-21-18.6-8-34.2-18-50.4-32.5l-7.1-6.4h-6.7c-3.8-.1-7.2.3-7.7.7-.4.5-.8 6.6-.7 13.5l.1 12.7 7 14.5 7.1 14.5 9.6 8c8.2 6.8 11.5 8.8 22.8 13.8 24.8 10.7 56.8 20.2 81.8 24.1 42.7 6.8 89.2 2.7 133.6-11.8 30.8-10.1 52-20.9 68.1-34.6 8.7-7.4 20.2-21 25.8-30.7l3.7-6.1 14.6 5c21.7 7.3 56.7 17.1 73.5 20.7 22 4.6 31.2 5.9 53.3 7.5 17.5 1.3 23.5 1.3 47 .1 38-2.1 59.8-4.8 90.4-11.6 39.1-8.6 72.4-20.9 115-42.5 48.9-24.7 83.5-50 119.8-87.6 7.2-7.5 7.5-7.9 11.9-20.5 8.6-24.6 14-50.2 12.8-59.9-.6-4.8-.8-5.2-3.7-5.8-3.2-.6-7.9-.6-11.5.1zM4268.2 5887c-1.3 1.6-1.8 3-1.3 3 .6 0 1.7-1.4 2.6-3 .9-1.7 1.4-3 1.2-3-.2 0-1.3 1.3-2.5 3z"/></svg>